<svg width="477" height="90" viewBox="0 0 477 90" fill="none" xmlns="http://www.w3.org/2000/svg">
<path d="M7.97 88H0.13V0.479992H7.97V88ZM42.0638 89.28C31.3971 89.28 26.0638 82.7733 26.0638 69.76V8.16H33.1038V24.32H53.2638V31.36H33.1038V69.76C33.1038 78.2933 36.3038 82.56 42.7038 82.56C44.9438 82.56 47.1304 81.8133 49.2638 80.32C51.3971 78.72 53.0504 76.96 54.2238 75.04L59.3438 78.88C55.7171 85.8133 49.9571 89.28 42.0638 89.28ZM122.443 77.76C122.443 78.8267 122.923 79.84 123.883 80.8C124.843 81.76 125.856 82.24 126.923 82.24C128.416 82.24 129.643 81.5467 130.603 80.16L136.363 84.16C134.443 87.5733 131.296 89.28 126.923 89.28C123.936 89.28 121.376 88.32 119.243 86.4C117.216 84.48 115.989 82.1333 115.563 79.36C111.723 85.9733 105.216 89.28 96.0425 89.28C87.4025 89.28 80.6825 86.1867 75.8825 80C71.1892 73.8133 68.8425 65.92 68.8425 56.32C68.8425 46.6133 71.5092 38.6667 76.8425 32.48C82.1758 26.1867 89.4292 23.04 98.6025 23.04C104.363 23.04 109.963 23.4133 115.403 24.16H122.443V77.76ZM115.403 30.72C113.696 30.72 111.029 30.56 107.403 30.24C103.883 29.8133 101.003 29.6 98.7625 29.6C91.5092 29.6 85.9092 32.0533 81.9625 36.96C78.0158 41.8667 76.0425 48.2133 76.0425 56C76.0425 63.4667 77.7492 69.76 81.1625 74.88C84.5758 80 89.5358 82.56 96.0425 82.56C101.589 82.56 106.176 80.8533 109.803 77.44C113.536 74.0267 115.403 69.5467 115.403 64V30.72ZM157.2 7.67999C155.493 7.67999 154 8.32 152.72 9.6C151.547 10.7733 150.96 12.2133 150.96 13.92H143.76C143.76 8.16 146.48 4 151.92 1.44C153.52 0.799994 155.227 0.479992 157.04 0.479992H186.48C194.16 0.479992 200.133 2.93333 204.4 7.83999C208.773 12.7467 210.96 19.2 210.96 27.2C210.96 36.0533 208.4 42.9333 203.28 47.84C198.16 52.64 191.013 55.04 181.84 55.04C178.32 55.04 175.387 54.8267 173.04 54.4V47.36L184.88 48C190.64 48 195.173 46.0267 198.48 42.08C201.787 38.1333 203.44 33.12 203.44 27.04C203.44 21.1733 201.733 16.5333 198.32 13.12C195.013 9.59999 190.427 7.78666 184.56 7.67999H167.76V88.16H159.92V7.67999H157.2ZM254.369 82.56C260.342 82.56 267.009 80.5333 274.369 76.48L277.729 81.92C270.902 86.8267 263.115 89.28 254.369 89.28C234.955 89.28 225.249 78.2933 225.249 56.32C225.249 47.04 227.755 39.2 232.769 32.8C237.782 26.2933 244.502 23.04 252.929 23.04C259.649 23.04 265.195 24.7467 269.569 28.16C273.942 31.4667 276.129 36.2133 276.129 42.4C276.129 49.44 273.462 54.56 268.129 57.76C262.902 60.8533 256.182 62.4 247.969 62.4H232.929C234.635 75.84 241.782 82.56 254.369 82.56ZM232.449 55.68H247.969C261.942 55.68 268.929 51.2533 268.929 42.4C268.929 38.0267 267.435 34.7733 264.449 32.64C261.569 30.4 257.729 29.28 252.929 29.28C246.635 29.28 241.622 31.9467 237.889 37.28C234.262 42.5067 232.449 48.64 232.449 55.68ZM336.798 44.96C336.798 39.6267 335.624 35.7333 333.278 33.28C331.038 30.8267 327.358 29.6 322.238 29.6C318.931 29.6 315.891 30.2933 313.118 31.68C310.344 33.0667 308.211 34.56 306.718 36.16C305.331 37.6533 303.571 39.7867 301.438 42.56V88H294.398V42.88C294.398 36.0533 292.691 30.9333 289.278 27.52L293.598 23.36C297.224 25.8133 299.571 29.76 300.638 35.2C306.184 27.0933 313.384 23.04 322.238 23.04C336.638 23.04 343.838 29.8667 343.838 43.52V78.08C343.838 79.1467 344.264 80.16 345.118 81.12C346.078 82.08 347.144 82.56 348.318 82.56C349.811 82.56 351.038 81.92 351.998 80.64L357.758 84.48C355.518 87.8933 352.371 89.6 348.318 89.6C345.118 89.6 342.398 88.48 340.158 86.24C337.918 84 336.798 81.28 336.798 78.08V44.96ZM411.116 70.72C411.116 77.0133 408.983 81.7067 404.716 84.8C400.45 87.7867 394.796 89.28 387.756 89.28C379.756 89.28 372.556 86.8267 366.156 81.92L369.676 76.48C376.183 80.5333 382.53 82.56 388.716 82.56C398.743 82.56 403.756 78.6133 403.756 70.72C403.756 65.7067 400.823 61.9733 394.956 59.52C393.57 58.88 391.383 58.08 388.396 57.12C385.516 56.0533 383.17 55.1467 381.356 54.4C379.65 53.5467 377.783 52.4267 375.756 51.04C373.73 49.6533 372.183 47.9467 371.116 45.92C370.156 43.7867 369.676 41.28 369.676 38.4C369.676 33.6 371.436 29.8667 374.956 27.2C378.583 24.4267 383.063 23.04 388.396 23.04C391.276 23.04 394.37 23.4133 397.676 24.16C400.983 24.9067 403.383 25.8133 404.876 26.88L403.436 33.44C396.93 30.88 391.596 29.6 387.436 29.6C384.45 29.6 381.996 30.4 380.076 32C378.156 33.6 377.196 35.7333 377.196 38.4C377.196 40.2133 377.676 41.8667 378.636 43.36C379.596 44.7467 380.61 45.8133 381.676 46.56C382.743 47.2 384.183 47.8933 385.996 48.64C387.17 49.1733 389.196 50.0267 392.076 51.2C395.063 52.3733 397.41 53.3867 399.116 54.24C400.93 55.0933 402.85 56.32 404.876 57.92C407.01 59.4133 408.556 61.2267 409.516 63.36C410.583 65.4933 411.116 67.9467 411.116 70.72ZM453.431 82.56C459.405 82.56 466.071 80.5333 473.431 76.48L476.791 81.92C469.965 86.8267 462.178 89.28 453.431 89.28C434.018 89.28 424.311 78.2933 424.311 56.32C424.311 47.04 426.818 39.2 431.831 32.8C436.845 26.2933 443.565 23.04 451.991 23.04C458.711 23.04 464.258 24.7467 468.631 28.16C473.005 31.4667 475.191 36.2133 475.191 42.4C475.191 49.44 472.525 54.56 467.191 57.76C461.965 60.8533 455.245 62.4 447.031 62.4H431.991C433.698 75.84 440.845 82.56 453.431 82.56ZM431.511 55.68H447.031C461.005 55.68 467.991 51.2533 467.991 42.4C467.991 38.0267 466.498 34.7733 463.511 32.64C460.631 30.4 456.791 29.28 451.991 29.28C445.698 29.28 440.685 31.9467 436.951 37.28C433.325 42.5067 431.511 48.64 431.511 55.68Z" fill="black"/>
</svg>
