<svg width="665" height="600" viewBox="0 0 665 600" fill="none" xmlns="http://www.w3.org/2000/svg">
<g clip-path="url(#clip0)">
<path d="M276.789 283.637H191.777C178.67 283.637 168.007 294.484 168.007 307.819C168.007 315.283 171.43 322.241 177.046 326.77C176.167 329.675 175.716 332.722 175.716 335.784C175.716 347.702 182.673 358.543 193.083 363.51C194.596 380.166 208.017 393.358 224.582 394.176C227.365 409.999 240.994 422.049 257.335 422.049C261.286 422.049 265.201 421.328 268.883 419.942C277.52 432.439 291.627 440 306.882 440C315.179 440 323.187 437.791 330.281 433.571C336.649 437.741 344.129 440 351.746 440C365.422 440 377.908 432.906 385.124 421.465C391.177 424.548 397.835 426.157 404.705 426.157C424.439 426.157 441.369 413.01 446.802 394.212C464.86 393.871 479.449 378.815 479.449 360.372C479.449 355.588 478.479 350.947 476.605 346.661C486.635 340.679 493.003 329.684 493.003 317.477C493.003 298.82 478.073 283.637 459.731 283.637H419.061C412.881 283.637 406.929 285.232 401.638 288.284C396.133 285.232 389.988 283.637 383.646 283.637H331.326C320.607 283.637 310.582 288.248 303.54 296.079C296.898 288.324 287.133 283.637 276.789 283.637ZM276.789 295.652V295.657C284.777 295.657 292.226 299.867 296.543 306.57C292.373 314.898 289.596 329.802 301.184 343.65C303.302 346.179 307.034 346.478 309.517 344.33C310.893 343.137 311.594 341.451 311.594 339.755C311.594 338.374 311.132 336.992 310.187 335.86C299.681 323.312 307.283 311.425 308.192 310.12C308.243 310.043 308.248 309.952 308.298 309.876C308.385 309.744 308.502 309.637 308.578 309.49C313.097 300.964 321.821 295.662 331.337 295.662H383.651C388.816 295.662 393.777 297.226 398.043 300.141C399.439 301.558 406.346 309.287 406.346 323.058C406.346 323.495 406.34 323.932 406.33 324.383C406.325 324.449 406.325 324.51 406.325 324.582C406.325 327.811 408.844 330.472 412.043 330.579C415.303 330.691 418.03 328.091 418.137 324.769C418.162 324.196 418.167 323.627 418.167 323.063C418.167 311.221 414.201 302.614 410.728 297.262C413.374 296.241 416.172 295.657 419.071 295.657H459.741C471.568 295.657 481.196 305.448 481.196 317.477C481.196 326.938 475.26 335.271 466.424 338.211C466.251 338.267 466.139 338.419 465.977 338.491C465.51 338.694 465.027 338.856 464.611 339.191C463.636 339.938 455.902 345.28 444.887 337.769C445.964 335.241 446.543 332.574 446.543 329.903C446.543 323.744 443.74 317.655 438.458 313.77C435.818 311.825 432.121 312.425 430.206 315.121C428.297 317.802 428.886 321.56 431.532 323.515C434.985 326.054 435.757 330.98 433.263 334.479C430.77 337.988 425.936 338.78 422.488 336.246C419.842 334.306 416.145 334.905 414.236 337.597C412.321 340.278 412.92 344.041 415.566 345.991C422.097 350.79 430.587 350.876 437.097 346.895C448.36 355.132 458.907 354.659 465.925 351.988C467.011 354.629 467.636 357.447 467.636 360.372C467.636 372.407 458.013 382.197 446.182 382.197C445.12 382.197 444.079 382.116 443.059 381.959C442.8 381.918 442.566 381.999 442.307 381.994C442.053 381.989 441.825 381.893 441.566 381.923C431.211 383.02 423.665 375.281 423.594 375.195C421.35 372.788 417.602 372.686 415.241 374.971C412.874 377.266 412.773 381.065 415.022 383.472C415.398 383.873 422.914 391.602 434.476 393.527C429.734 405.765 418.14 414.138 404.709 414.138C398.057 414.138 391.669 412.076 386.24 408.176C386.199 408.146 386.144 408.146 386.098 408.115C385.646 407.806 385.163 407.531 384.615 407.354C372.443 403.428 369.635 390.428 369.03 383.025C385.59 380.948 398.457 366.582 398.457 349.195C398.457 330.386 383.406 315.076 364.907 315.076C359.204 315.076 353.659 316.62 348.728 319.387C346.224 313.466 341.497 308.53 335.098 306.103C332.041 304.94 328.634 306.519 327.501 309.632C326.359 312.735 327.913 316.203 330.97 317.361C337.282 319.758 340.506 326.928 338.155 333.362C335.799 339.786 328.745 343.061 322.433 340.67C319.376 339.512 315.969 341.091 314.826 344.204C313.714 347.322 315.243 350.77 318.3 351.938C330.726 356.645 344.594 350.196 349.23 337.562C349.829 335.927 350.19 334.271 350.434 332.611C350.525 332.54 350.637 332.519 350.728 332.443C354.669 329 359.701 327.096 364.906 327.096C376.891 327.096 386.64 337.008 386.64 349.19C386.64 361.373 376.89 371.284 364.906 371.284C358.391 371.284 352.267 368.344 348.113 363.215C346.041 360.651 342.314 360.285 339.8 362.398C337.276 364.5 336.921 368.283 338.998 370.858C343.71 376.682 350.078 380.654 357.116 382.36C357.573 391.013 360.448 407.562 374.534 415.829C369.395 423.324 360.986 427.981 351.749 427.981C345.28 427.981 339.211 425.787 334.194 421.644C334.118 421.578 334.022 421.557 333.94 421.496C333.803 421.395 333.697 421.268 333.549 421.176C329.116 418.424 327.359 415.027 326.658 412.335C334.113 410.705 340.715 406.033 344.706 399.208C345.27 398.244 345.539 397.187 345.539 396.146C345.539 394.1 344.508 392.099 342.649 390.977C339.846 389.281 336.22 390.22 334.555 393.074C331.63 398.076 326.262 401.113 320.549 400.991C313.745 400.844 307.783 396.329 305.711 389.753C304.716 386.589 301.39 384.847 298.287 385.863C295.184 386.874 293.478 390.291 294.463 393.414C297.479 402.997 305.254 409.999 314.623 412.208C315.095 415.88 316.501 420.658 320.188 425.173C315.994 426.955 311.515 427.981 306.884 427.981C294.102 427.981 282.397 420.856 276.344 409.395C276.273 409.258 276.136 409.172 276.06 409.045C275.974 408.903 275.953 408.74 275.852 408.603C275.324 407.887 264.467 392.587 275.557 373.356C285.632 379.658 298.931 379.013 308.29 370.685C309.631 369.492 310.311 367.831 310.311 366.161C310.311 364.754 309.834 363.342 308.849 362.205C306.696 359.706 302.963 359.452 300.51 361.636C293.909 367.511 283.844 366.836 278.076 360.128C275.273 356.878 273.902 352.693 274.171 348.402C274.45 344.096 276.365 340.156 279.554 337.317C282.017 335.113 282.255 331.325 280.112 328.836C277.959 326.338 274.227 326.084 271.774 328.268C266.198 333.229 262.862 340.1 262.374 347.61C261.988 353.749 263.629 359.69 266.884 364.774C255.615 382.192 258.022 398.984 262.664 409.323C260.932 409.775 259.145 410.024 257.342 410.024C247.226 410.024 238.771 402.839 236.522 393.241C241.677 392.053 248.679 389.443 252.275 383.78C252.914 382.77 253.219 381.637 253.219 380.525C253.219 378.55 252.264 376.62 250.518 375.473C247.775 373.67 244.119 374.467 242.347 377.255C240.575 380.048 234.176 381.693 230.454 382.11C230.027 382.059 229.616 381.917 229.184 381.973C228.214 382.11 227.219 382.191 226.214 382.191C216.027 382.191 207.516 374.914 205.333 365.215C212.508 364.661 223.858 362.513 232.343 354.845C238.34 349.422 241.763 342.165 242.829 333.426C249.258 330.192 253.219 323.534 253.219 316.445C253.219 314.378 252.884 312.286 252.178 310.224C251.107 307.091 247.735 305.436 244.652 306.528C241.57 307.619 239.95 311.032 241.016 314.18C242.271 317.801 240.371 321.772 236.802 323.031C233.247 324.286 229.342 322.366 228.098 318.746C227.016 315.612 223.654 313.957 220.572 315.049C217.484 316.145 215.864 319.599 216.936 322.701C219.16 329.186 224.533 333.609 230.698 334.955C229.682 339.378 227.661 342.978 224.523 345.822C216.367 353.231 203.287 353.439 200.016 353.368C192.638 350.86 187.524 343.735 187.524 335.778C187.524 333.65 188.006 331.588 188.697 329.603C194.242 328.292 204.678 324.849 209.334 316.862C209.893 315.902 210.162 314.845 210.162 313.804C210.162 311.748 209.126 309.747 207.262 308.625C204.454 306.934 200.828 307.873 199.168 310.732C197.025 314.419 190.357 316.948 185.543 318.014C182.075 315.81 179.825 312.017 179.825 307.812C179.825 301.104 185.187 295.65 191.774 295.65H276.789V295.652Z" fill="black"/>
</g>
<path d="M196.603 290.479H262.229C262.873 290.477 263.514 290.341 264.102 290.08C264.899 290.333 265.726 290.465 266.56 290.479H314.154C319.226 290.372 323.257 286.178 323.166 281.104V131.105C323.154 127.69 321.281 124.552 318.282 122.923C316.413 110.765 307.117 101.083 295.041 98.7225V74.853C295.041 72.2643 292.941 70.1666 290.354 70.1666C287.764 70.1666 285.666 72.2643 285.666 74.853V98.7225C273.592 101.083 264.295 110.765 262.425 122.923C259.426 124.552 257.555 127.69 257.541 131.105V149.854H248.167V140.479C248.167 135.3 243.97 131.105 238.793 131.105H215.354C210.177 131.105 205.978 135.3 205.978 140.479V149.854H196.603C191.426 149.854 187.229 154.051 187.229 159.228V281.104C187.229 286.281 191.426 290.479 196.603 290.479V290.479ZM266.916 281.104V131.105H313.791L314.154 281.104H266.916ZM290.354 107.666C298.793 107.889 306.101 113.595 308.363 121.729H272.345C274.606 113.595 281.914 107.889 290.354 107.666ZM215.354 140.479H238.793V149.854H215.354V140.479ZM196.603 159.228H257.541V281.104H196.603V159.228Z" fill="black"/>
<path d="M341.916 290.478H459.104C464.282 290.478 468.479 286.281 468.479 281.104V187.353C468.479 187.26 468.431 187.18 468.427 187.09C468.402 186.649 468.314 186.213 468.166 185.798C468.122 185.676 468.1 185.552 468.048 185.437C467.844 184.972 467.567 184.539 467.227 184.162L452.377 168.171C449.888 165.476 446.39 163.937 442.721 163.916H423.868C420.227 163.947 416.761 165.473 414.277 168.135L407.541 175.386V159.228C407.541 154.051 403.344 149.853 398.166 149.853V93.6035C398.156 90.2183 396.314 87.1043 393.351 85.465C393.422 85.0581 393.465 84.6427 393.478 84.229V46.7279C393.478 46.0996 393.413 45.4696 393.288 44.8516C396.103 42.4089 396.446 38.162 394.06 35.2952L378.012 15.3585C376.266 13.187 373.643 11.9064 370.857 11.8686C368.091 11.8926 365.461 13.0719 363.601 15.1199L346.383 35.1133C343.915 37.9062 344.124 42.16 346.853 44.6971C346.695 45.3649 346.613 46.0464 346.603 46.7279V84.229C346.618 84.6427 346.659 85.0581 346.73 85.465C343.769 87.1043 341.927 90.2183 341.916 93.6035V149.853C336.739 149.853 332.542 154.051 332.542 159.228V281.104C332.542 286.281 336.739 290.478 341.916 290.478V290.478ZM365.353 281.104V262.353H374.728V281.104H365.353ZM407.541 281.104V192.041H459.104V281.104H407.541ZM421.135 174.519C421.839 173.75 422.827 173.306 423.868 173.292H442.721C443.785 173.302 444.796 173.759 445.507 174.552L453.043 182.667H413.58L421.135 174.519ZM355.979 46.7279H384.104V84.229H355.979V46.7279ZM370.702 21.243L383.682 37.3534H356.829L370.702 21.243ZM351.293 93.6035H388.792V149.853H351.293V93.6035ZM341.916 159.228H398.166V281.104H384.104V262.353C384.104 257.176 379.905 252.979 374.728 252.979H365.353C360.176 252.979 355.979 257.176 355.979 262.353V281.104H341.916V159.228Z" fill="black"/>
<path d="M210.668 74.853H264.573C276.222 74.853 285.666 65.4099 285.666 53.7593C285.666 42.1103 276.222 32.6673 264.573 32.6673C263.752 32.6673 262.932 32.7153 262.116 32.8166C261.067 20.4038 251.283 10.5229 238.88 9.34877C226.478 8.17461 215.014 16.047 211.656 28.0444C211.328 28.029 210.995 27.9775 210.668 27.9775C197.721 27.9775 187.229 38.4711 187.229 51.4161C187.229 64.3594 197.721 74.853 210.668 74.853ZM214.211 37.824C214.355 37.8634 214.502 37.824 214.652 37.8549C214.791 37.9046 214.935 37.9458 215.081 37.9785C215.251 37.9664 215.417 37.9458 215.584 37.9149C215.888 37.9149 216.19 37.8823 216.489 37.824C216.799 37.7553 217.105 37.654 217.392 37.5184C217.628 37.4085 217.853 37.2798 218.068 37.1339C218.348 36.9451 218.602 36.7253 218.828 36.4781C219.002 36.2893 219.158 36.0867 219.295 35.8722C219.486 35.5889 219.645 35.2868 219.766 34.9675C219.841 34.8302 219.906 34.686 219.966 34.5401C220.008 34.3959 219.966 34.2551 219.999 34.1109C220.032 33.965 220.105 33.8277 220.121 33.6698C220.744 25.1313 227.887 18.5395 236.448 18.603C245.508 18.603 252.853 25.9484 252.853 35.0104C252.853 35.4773 252.755 35.9013 252.718 36.3511C247.564 39.8393 244.231 45.4423 243.623 51.6358C243.592 51.8487 243.572 52.0598 243.568 52.2744C243.568 52.3499 243.525 52.4152 243.525 52.4941C243.525 55.0828 245.625 57.1822 248.213 57.1822H248.261C248.874 57.1805 249.484 57.0569 250.05 56.8217C250.193 56.7599 250.299 56.6483 250.435 56.5728C250.831 56.3771 251.199 56.1265 251.526 55.833C251.605 55.7334 251.679 55.6321 251.748 55.5274C252.067 55.1806 252.331 54.7875 252.531 54.3601C252.572 54.2622 252.579 54.1438 252.615 54.0408C252.78 53.6408 252.889 53.2237 252.939 52.7945C253.248 48.7313 255.674 45.1333 259.323 43.3206C260.942 42.4708 262.744 42.0314 264.573 42.0417C271.044 42.0417 276.29 47.2876 276.29 53.7593C276.29 60.2309 271.044 65.4786 264.573 65.4786H210.668C205.2 65.5009 200.215 62.3509 197.887 57.4054C195.558 52.4598 196.308 46.613 199.808 42.4125C203.31 38.2136 208.925 36.4215 214.211 37.824Z" fill="black"/>
<path d="M442.697 60.7922C456.936 60.7922 468.479 49.2497 468.479 35.0103C468.479 20.771 456.936 9.22852 442.697 9.22852C428.458 9.22852 416.915 20.771 416.915 35.0103C416.931 49.2428 428.465 60.7767 442.697 60.7922ZM442.697 18.6029C451.759 18.6029 459.105 25.9483 459.105 35.0103C459.105 44.0723 451.759 51.416 442.697 51.416C433.635 51.416 426.291 44.0723 426.291 35.0103C426.291 25.9483 433.635 18.6029 442.697 18.6029V18.6029Z" fill="black"/>
<path d="M280.98 140.479C278.39 140.479 276.29 142.577 276.29 145.165V154.542C276.29 157.13 278.39 159.228 280.98 159.228C283.567 159.228 285.666 157.13 285.666 154.542V145.165C285.666 142.577 283.567 140.479 280.98 140.479Z" fill="black"/>
<path d="M299.729 140.479C297.14 140.479 295.041 142.577 295.041 145.165V154.542C295.041 157.13 297.14 159.228 299.729 159.228C302.318 159.228 304.415 157.13 304.415 154.542V145.165C304.415 142.577 302.318 140.479 299.729 140.479Z" fill="black"/>
<path d="M280.98 168.602C278.39 168.602 276.29 170.702 276.29 173.292V182.667C276.29 185.254 278.39 187.353 280.98 187.353C283.567 187.353 285.666 185.254 285.666 182.667V173.292C285.666 170.702 283.567 168.602 280.98 168.602V168.602Z" fill="black"/>
<path d="M299.729 168.602C297.14 168.602 295.041 170.702 295.041 173.292V182.667C295.041 185.254 297.14 187.353 299.729 187.353C302.318 187.353 304.415 185.254 304.415 182.667V173.292C304.415 170.702 302.318 168.602 299.729 168.602V168.602Z" fill="black"/>
<path d="M280.98 196.727C278.39 196.727 276.29 198.827 276.29 201.417V210.792C276.29 213.379 278.39 215.478 280.98 215.478C283.567 215.478 285.666 213.379 285.666 210.792V201.417C285.666 198.827 283.567 196.727 280.98 196.727V196.727Z" fill="black"/>
<path d="M299.729 196.727C297.14 196.727 295.041 198.827 295.041 201.417V210.792C295.041 213.379 297.14 215.478 299.729 215.478C302.318 215.478 304.415 213.379 304.415 210.792V201.417C304.415 198.827 302.318 196.727 299.729 196.727V196.727Z" fill="black"/>
<path d="M280.98 224.854C278.39 224.854 276.29 226.954 276.29 229.54V238.915C276.29 241.505 278.39 243.605 280.98 243.605C283.567 243.605 285.666 241.505 285.666 238.915V229.54C285.666 226.954 283.567 224.854 280.98 224.854Z" fill="black"/>
<path d="M299.729 224.854C297.14 224.854 295.041 226.954 295.041 229.54V238.915C295.041 241.505 297.14 243.605 299.729 243.605C302.318 243.605 304.415 241.505 304.415 238.915V229.54C304.415 226.954 302.318 224.854 299.729 224.854Z" fill="black"/>
<path d="M280.98 252.979C278.39 252.979 276.29 255.079 276.29 257.665V267.04C276.29 269.63 278.39 271.73 280.98 271.73C283.567 271.73 285.666 269.63 285.666 267.04V257.665C285.666 255.079 283.567 252.979 280.98 252.979Z" fill="black"/>
<path d="M299.729 252.979C297.14 252.979 295.041 255.079 295.041 257.665V267.04C295.041 269.63 297.14 271.73 299.729 271.73C302.318 271.73 304.415 269.63 304.415 267.04V257.665C304.415 255.079 302.318 252.979 299.729 252.979Z" fill="black"/>
<path d="M355.979 187.353C358.568 187.353 360.667 185.254 360.667 182.667V173.292C360.667 170.702 358.568 168.602 355.979 168.602C353.39 168.602 351.293 170.702 351.293 173.292V182.667C351.293 185.254 353.39 187.353 355.979 187.353Z" fill="black"/>
<path d="M370.041 121.729C367.453 121.729 365.353 123.828 365.353 126.415V135.791C365.353 138.38 367.453 140.479 370.041 140.479C372.63 140.479 374.728 138.38 374.728 135.791V126.415C374.728 123.828 372.63 121.729 370.041 121.729Z" fill="black"/>
<path d="M370.041 56.1023C367.453 56.1023 365.353 58.2017 365.353 60.7921V70.1665C365.353 72.7535 367.453 74.8529 370.041 74.8529C372.63 74.8529 374.728 72.7535 374.728 70.1665V60.7921C374.728 58.2017 372.63 56.1023 370.041 56.1023Z" fill="black"/>
<path d="M384.104 187.353C386.693 187.353 388.792 185.254 388.792 182.667V173.292C388.792 170.702 386.693 168.602 384.104 168.602C381.515 168.602 379.418 170.702 379.418 173.292V182.667C379.418 185.254 381.515 187.353 384.104 187.353Z" fill="black"/>
<path d="M355.979 215.478C358.568 215.478 360.667 213.379 360.667 210.792V201.417C360.667 198.827 358.568 196.727 355.979 196.727C353.39 196.727 351.293 198.827 351.293 201.417V210.792C351.293 213.379 353.39 215.478 355.979 215.478Z" fill="black"/>
<path d="M384.104 215.478C386.693 215.478 388.792 213.379 388.792 210.792V201.417C388.792 198.827 386.693 196.727 384.104 196.727C381.515 196.727 379.418 198.827 379.418 201.417V210.792C379.418 213.379 381.515 215.478 384.104 215.478Z" fill="black"/>
<path d="M355.979 243.605C358.568 243.605 360.667 241.505 360.667 238.915V229.54C360.667 226.954 358.568 224.854 355.979 224.854C353.39 224.854 351.293 226.954 351.293 229.54V238.915C351.293 241.505 353.39 243.605 355.979 243.605Z" fill="black"/>
<path d="M384.104 243.605C386.693 243.605 388.792 241.505 388.792 238.915V229.54C388.792 226.954 386.693 224.854 384.104 224.854C381.515 224.854 379.418 226.954 379.418 229.54V238.915C379.418 241.505 381.515 243.605 384.104 243.605Z" fill="black"/>
<path d="M426.291 201.417H421.605C419.015 201.417 416.915 203.515 416.915 206.104C416.915 208.692 419.015 210.792 421.605 210.792H426.291C428.88 210.792 430.979 208.692 430.979 206.104C430.979 203.515 428.88 201.417 426.291 201.417Z" fill="black"/>
<path d="M426.291 220.166H421.605C419.015 220.166 416.915 222.264 416.915 224.854C416.915 227.443 419.015 229.54 421.605 229.54H426.291C428.88 229.54 430.979 227.443 430.979 224.854C430.979 222.264 428.88 220.166 426.291 220.166Z" fill="black"/>
<path d="M426.291 238.915H421.605C419.015 238.915 416.915 241.014 416.915 243.605C416.915 246.192 419.015 248.291 421.605 248.291H426.291C428.88 248.291 430.979 246.192 430.979 243.605C430.979 241.014 428.88 238.915 426.291 238.915Z" fill="black"/>
<path d="M426.291 257.665H421.605C419.015 257.665 416.915 259.765 416.915 262.354C416.915 264.942 419.015 267.04 421.605 267.04H426.291C428.88 267.04 430.979 264.942 430.979 262.354C430.979 259.765 428.88 257.665 426.291 257.665Z" fill="black"/>
<path d="M224.728 206.104H211.134C208.548 206.104 206.448 208.201 206.448 210.792C206.448 213.379 208.548 215.478 211.134 215.478H224.728C227.319 215.478 229.416 213.379 229.416 210.792C229.416 208.201 227.319 206.104 224.728 206.104Z" fill="black"/>
<path d="M224.728 187.353H211.134C208.548 187.353 206.448 189.452 206.448 192.041C206.448 194.63 208.548 196.727 211.134 196.727H224.728C227.319 196.727 229.416 194.63 229.416 192.041C229.416 189.452 227.319 187.353 224.728 187.353V187.353Z" fill="black"/>
<path d="M224.728 168.602H211.134C208.548 168.602 206.448 170.702 206.448 173.292C206.448 175.879 208.548 177.979 211.134 177.979H224.728C227.319 177.979 229.416 175.879 229.416 173.292C229.416 170.702 227.319 168.602 224.728 168.602Z" fill="black"/>
<path d="M224.728 224.854H211.134C208.548 224.854 206.448 226.954 206.448 229.54C206.448 232.131 208.548 234.229 211.134 234.229H224.728C227.319 234.229 229.416 232.131 229.416 229.54C229.416 226.954 227.319 224.854 224.728 224.854Z" fill="black"/>
<path d="M224.728 243.605H211.134C208.548 243.605 206.448 245.702 206.448 248.291C206.448 250.88 208.548 252.979 211.134 252.979H224.728C227.319 252.979 229.416 250.88 229.416 248.291C229.416 245.702 227.319 243.605 224.728 243.605Z" fill="black"/>
<path d="M224.728 262.354H211.134C208.548 262.354 206.448 264.453 206.448 267.04C206.448 269.63 208.548 271.73 211.134 271.73H224.728C227.319 271.73 229.416 269.63 229.416 267.04C229.416 264.453 227.319 262.354 224.728 262.354Z" fill="black"/>
<path d="M448.369 202.775C446.489 201.041 443.591 201.041 441.713 202.775C441.279 203.216 440.944 203.741 440.73 204.322C440.49 204.886 440.361 205.491 440.354 206.104C440.371 207.345 440.857 208.534 441.713 209.43C442.162 209.856 442.687 210.191 443.26 210.416C443.825 210.656 444.429 210.783 445.04 210.792C446.283 210.773 447.469 210.287 448.369 209.43C448.782 208.975 449.116 208.452 449.354 207.885C449.854 206.751 449.854 205.456 449.354 204.322C449.14 203.741 448.803 203.216 448.369 202.775Z" fill="black"/>
<path d="M447.667 220.962C447.406 220.786 447.123 220.645 446.822 220.542C446.558 220.406 446.273 220.31 445.978 220.26C444.436 219.945 442.834 220.42 441.713 221.526C441.289 221.972 440.955 222.499 440.73 223.071C440.49 223.635 440.361 224.241 440.354 224.854C440.364 225.168 440.395 225.481 440.447 225.79C440.498 226.085 440.593 226.37 440.73 226.636C440.831 226.933 440.972 227.218 441.15 227.479L441.713 228.183C442.611 229.037 443.801 229.523 445.04 229.54C445.356 229.53 445.669 229.501 445.978 229.446C446.273 229.398 446.558 229.3 446.822 229.164C447.123 229.065 447.406 228.921 447.667 228.746L448.369 228.183L448.93 227.479C449.109 227.218 449.251 226.933 449.354 226.636C449.49 226.37 449.582 226.085 449.634 225.79C449.685 225.481 449.718 225.168 449.73 224.854C449.709 223.613 449.225 222.423 448.369 221.526C448.147 221.325 447.912 221.136 447.667 220.962Z" fill="black"/>
<path d="M447.667 239.715C447.406 239.536 447.123 239.394 446.822 239.291C446.558 239.155 446.273 239.063 445.978 239.011C444.436 238.704 442.84 239.176 441.713 240.276C439.894 242.111 439.901 245.072 441.732 246.895C443.561 248.72 446.522 248.72 448.352 246.895C450.182 245.072 450.188 242.111 448.369 240.276C448.147 240.075 447.912 239.887 447.667 239.715V239.715Z" fill="black"/>
<path d="M441.713 259.027C439.894 260.86 439.901 263.821 441.732 265.646C443.561 267.469 446.522 267.469 448.352 265.646C450.182 263.821 450.188 260.86 448.369 259.027C446.486 257.303 443.597 257.303 441.713 259.027V259.027Z" fill="black"/>
<path d="M248.167 173.292C248.167 175.879 246.068 177.979 243.479 177.979C240.89 177.979 238.793 175.879 238.793 173.292C238.793 170.702 240.89 168.602 243.479 168.602C246.068 168.602 248.167 170.702 248.167 173.292Z" fill="black"/>
<path d="M374.728 107.666C374.728 110.255 372.63 112.354 370.041 112.354C367.453 112.354 365.353 110.255 365.353 107.666C365.353 105.077 367.453 102.98 370.041 102.98C372.63 102.98 374.728 105.077 374.728 107.666Z" fill="black"/>
<path d="M248.167 192.041C248.167 194.63 246.068 196.727 243.479 196.727C240.89 196.727 238.793 194.63 238.793 192.041C238.793 189.452 240.89 187.353 243.479 187.353C246.068 187.353 248.167 189.452 248.167 192.041Z" fill="black"/>
<path d="M248.167 210.792C248.167 213.379 246.068 215.478 243.479 215.478C240.89 215.478 238.793 213.379 238.793 210.792C238.793 208.201 240.89 206.104 243.479 206.104C246.068 206.104 248.167 208.201 248.167 210.792V210.792Z" fill="black"/>
<path d="M248.167 229.54C248.167 232.131 246.068 234.229 243.479 234.229C240.89 234.229 238.793 232.131 238.793 229.54C238.793 226.954 240.89 224.854 243.479 224.854C246.068 224.854 248.167 226.954 248.167 229.54V229.54Z" fill="black"/>
<path d="M248.167 248.291C248.167 250.88 246.068 252.979 243.479 252.979C240.89 252.979 238.793 250.88 238.793 248.291C238.793 245.702 240.89 243.605 243.479 243.605C246.068 243.605 248.167 245.702 248.167 248.291Z" fill="black"/>
<path d="M248.167 267.04C248.167 269.63 246.068 271.73 243.479 271.73C240.89 271.73 238.793 269.63 238.793 267.04C238.793 264.453 240.89 262.354 243.479 262.354C246.068 262.354 248.167 264.453 248.167 267.04Z" fill="black"/>
<path d="M100.97 565H93.13V477.48H100.97V565ZM135.064 566.28C124.397 566.28 119.064 559.773 119.064 546.76V485.16H126.104V501.32H146.264V508.36H126.104V546.76C126.104 555.293 129.304 559.56 135.704 559.56C137.944 559.56 140.13 558.813 142.264 557.32C144.397 555.72 146.05 553.96 147.224 552.04L152.344 555.88C148.717 562.813 142.957 566.28 135.064 566.28ZM215.443 554.76C215.443 555.827 215.923 556.84 216.883 557.8C217.843 558.76 218.856 559.24 219.923 559.24C221.416 559.24 222.643 558.547 223.603 557.16L229.363 561.16C227.443 564.573 224.296 566.28 219.923 566.28C216.936 566.28 214.376 565.32 212.243 563.4C210.216 561.48 208.989 559.133 208.563 556.36C204.723 562.973 198.216 566.28 189.043 566.28C180.403 566.28 173.683 563.187 168.883 557C164.189 550.813 161.842 542.92 161.842 533.32C161.842 523.613 164.509 515.667 169.843 509.48C175.176 503.187 182.429 500.04 191.603 500.04C197.363 500.04 202.963 500.413 208.403 501.16H215.443V554.76ZM208.403 507.72C206.696 507.72 204.029 507.56 200.403 507.24C196.883 506.813 194.003 506.6 191.763 506.6C184.509 506.6 178.909 509.053 174.963 513.96C171.016 518.867 169.043 525.213 169.043 533C169.043 540.467 170.749 546.76 174.163 551.88C177.576 557 182.536 559.56 189.043 559.56C194.589 559.56 199.176 557.853 202.803 554.44C206.536 551.027 208.403 546.547 208.403 541V507.72ZM250.2 484.68C248.493 484.68 247 485.32 245.72 486.6C244.547 487.773 243.96 489.213 243.96 490.92H236.76C236.76 485.16 239.48 481 244.92 478.44C246.52 477.8 248.227 477.48 250.04 477.48H279.48C287.16 477.48 293.133 479.933 297.4 484.84C301.773 489.747 303.96 496.2 303.96 504.2C303.96 513.053 301.4 519.933 296.28 524.84C291.16 529.64 284.013 532.04 274.84 532.04C271.32 532.04 268.387 531.827 266.04 531.4V524.36L277.88 525C283.64 525 288.173 523.027 291.48 519.08C294.787 515.133 296.44 510.12 296.44 504.04C296.44 498.173 294.733 493.533 291.32 490.12C288.013 486.6 283.427 484.787 277.56 484.68H260.76V565.16H252.92V484.68H250.2ZM347.369 559.56C353.342 559.56 360.009 557.533 367.369 553.48L370.729 558.92C363.902 563.827 356.115 566.28 347.369 566.28C327.955 566.28 318.249 555.293 318.249 533.32C318.249 524.04 320.755 516.2 325.769 509.8C330.782 503.293 337.502 500.04 345.929 500.04C352.649 500.04 358.195 501.747 362.569 505.16C366.942 508.467 369.129 513.213 369.129 519.4C369.129 526.44 366.462 531.56 361.129 534.76C355.902 537.853 349.182 539.4 340.969 539.4H325.929C327.635 552.84 334.782 559.56 347.369 559.56ZM325.449 532.68H340.969C354.942 532.68 361.929 528.253 361.929 519.4C361.929 515.027 360.435 511.773 357.449 509.64C354.569 507.4 350.729 506.28 345.929 506.28C339.635 506.28 334.622 508.947 330.889 514.28C327.262 519.507 325.449 525.64 325.449 532.68ZM429.798 521.96C429.798 516.627 428.624 512.733 426.278 510.28C424.038 507.827 420.358 506.6 415.238 506.6C411.931 506.6 408.891 507.293 406.118 508.68C403.344 510.067 401.211 511.56 399.718 513.16C398.331 514.653 396.571 516.787 394.438 519.56V565H387.398V519.88C387.398 513.053 385.691 507.933 382.278 504.52L386.598 500.36C390.224 502.813 392.571 506.76 393.638 512.2C399.184 504.093 406.384 500.04 415.238 500.04C429.638 500.04 436.838 506.867 436.838 520.52V555.08C436.838 556.147 437.264 557.16 438.118 558.12C439.078 559.08 440.144 559.56 441.318 559.56C442.811 559.56 444.038 558.92 444.998 557.64L450.758 561.48C448.518 564.893 445.371 566.6 441.318 566.6C438.118 566.6 435.398 565.48 433.158 563.24C430.918 561 429.798 558.28 429.798 555.08V521.96ZM504.116 547.72C504.116 554.013 501.983 558.707 497.716 561.8C493.45 564.787 487.796 566.28 480.756 566.28C472.756 566.28 465.556 563.827 459.156 558.92L462.676 553.48C469.183 557.533 475.53 559.56 481.716 559.56C491.743 559.56 496.756 555.613 496.756 547.72C496.756 542.707 493.823 538.973 487.956 536.52C486.57 535.88 484.383 535.08 481.396 534.12C478.516 533.053 476.17 532.147 474.356 531.4C472.65 530.547 470.783 529.427 468.756 528.04C466.73 526.653 465.183 524.947 464.116 522.92C463.156 520.787 462.676 518.28 462.676 515.4C462.676 510.6 464.436 506.867 467.956 504.2C471.583 501.427 476.063 500.04 481.396 500.04C484.276 500.04 487.37 500.413 490.676 501.16C493.983 501.907 496.383 502.813 497.876 503.88L496.436 510.44C489.93 507.88 484.596 506.6 480.436 506.6C477.45 506.6 474.996 507.4 473.076 509C471.156 510.6 470.196 512.733 470.196 515.4C470.196 517.213 470.676 518.867 471.636 520.36C472.596 521.747 473.61 522.813 474.676 523.56C475.743 524.2 477.183 524.893 478.996 525.64C480.17 526.173 482.196 527.027 485.076 528.2C488.063 529.373 490.41 530.387 492.116 531.24C493.93 532.093 495.85 533.32 497.876 534.92C500.01 536.413 501.556 538.227 502.516 540.36C503.583 542.493 504.116 544.947 504.116 547.72ZM546.431 559.56C552.405 559.56 559.071 557.533 566.431 553.48L569.791 558.92C562.965 563.827 555.178 566.28 546.431 566.28C527.018 566.28 517.311 555.293 517.311 533.32C517.311 524.04 519.818 516.2 524.831 509.8C529.845 503.293 536.565 500.04 544.991 500.04C551.711 500.04 557.258 501.747 561.631 505.16C566.005 508.467 568.191 513.213 568.191 519.4C568.191 526.44 565.525 531.56 560.191 534.76C554.965 537.853 548.245 539.4 540.031 539.4H524.991C526.698 552.84 533.845 559.56 546.431 559.56ZM524.511 532.68H540.031C554.005 532.68 560.991 528.253 560.991 519.4C560.991 515.027 559.498 511.773 556.511 509.64C553.631 507.4 549.791 506.28 544.991 506.28C538.698 506.28 533.685 508.947 529.951 514.28C526.325 519.507 524.511 525.64 524.511 532.68Z" fill="black"/>
<defs>
<clipPath id="clip0">
<rect width="325" height="325" fill="white" transform="translate(168 440) rotate(-90)"/>
</clipPath>
</defs>
</svg>
