<svg width="325" height="440" viewBox="0 0 325 440" fill="none" xmlns="http://www.w3.org/2000/svg">
<g clip-path="url(#clip0)">
<path d="M108.789 283.637H23.777C10.6704 283.637 0.00692749 294.484 0.00692749 307.819C0.00692749 315.283 3.42958 322.241 9.04599 326.77C8.16748 329.675 7.71552 332.722 7.71552 335.784C7.71552 347.702 14.6726 358.543 25.0827 363.51C26.596 380.166 40.0175 393.358 56.5817 394.176C59.3645 409.999 72.9936 422.049 89.335 422.049C93.2857 422.049 97.201 421.328 100.883 419.942C109.52 432.439 123.627 440 138.882 440C147.179 440 155.187 437.791 162.281 433.571C168.649 437.741 176.129 440 183.746 440C197.422 440 209.908 432.906 217.124 421.465C223.177 424.548 229.835 426.157 236.705 426.157C256.439 426.157 273.369 413.01 278.802 394.212C296.86 393.871 311.449 378.815 311.449 360.372C311.449 355.588 310.479 350.947 308.605 346.661C318.635 340.679 325.003 329.684 325.003 317.477C325.003 298.82 310.073 283.637 291.731 283.637H251.061C244.881 283.637 238.929 285.232 233.638 288.284C228.133 285.232 221.988 283.637 215.646 283.637H163.326C152.607 283.637 142.582 288.248 135.54 296.079C128.898 288.324 119.133 283.637 108.789 283.637ZM108.789 295.652V295.657C116.777 295.657 124.226 299.867 128.543 306.57C124.373 314.898 121.596 329.802 133.184 343.65C135.302 346.179 139.034 346.478 141.517 344.33C142.893 343.137 143.594 341.451 143.594 339.755C143.594 338.374 143.132 336.992 142.187 335.86C131.681 323.312 139.283 311.425 140.192 310.12C140.243 310.043 140.248 309.952 140.298 309.876C140.385 309.744 140.502 309.637 140.578 309.49C145.097 300.964 153.821 295.662 163.337 295.662H215.651C220.816 295.662 225.777 297.226 230.043 300.141C231.439 301.558 238.346 309.287 238.346 323.058C238.346 323.495 238.34 323.932 238.33 324.383C238.325 324.449 238.325 324.51 238.325 324.582C238.325 327.811 240.844 330.472 244.043 330.579C247.303 330.691 250.03 328.091 250.137 324.769C250.162 324.196 250.167 323.627 250.167 323.063C250.167 311.221 246.201 302.614 242.728 297.262C245.374 296.241 248.172 295.657 251.071 295.657H291.741C303.568 295.657 313.196 305.448 313.196 317.477C313.196 326.938 307.26 335.271 298.424 338.211C298.251 338.267 298.139 338.419 297.977 338.491C297.51 338.694 297.027 338.856 296.611 339.191C295.636 339.938 287.902 345.28 276.887 337.769C277.964 335.241 278.543 332.574 278.543 329.903C278.543 323.744 275.74 317.655 270.458 313.77C267.818 311.825 264.121 312.425 262.206 315.121C260.297 317.802 260.886 321.56 263.532 323.515C266.985 326.054 267.757 330.98 265.263 334.479C262.77 337.988 257.936 338.78 254.488 336.246C251.842 334.306 248.145 334.905 246.236 337.597C244.321 340.278 244.92 344.041 247.566 345.991C254.097 350.79 262.587 350.876 269.097 346.895C280.36 355.132 290.907 354.659 297.925 351.988C299.011 354.629 299.636 357.447 299.636 360.372C299.636 372.407 290.013 382.197 278.182 382.197C277.12 382.197 276.079 382.116 275.059 381.959C274.8 381.918 274.566 381.999 274.307 381.994C274.053 381.989 273.825 381.893 273.566 381.923C263.211 383.02 255.665 375.281 255.594 375.195C253.35 372.788 249.602 372.686 247.241 374.971C244.874 377.266 244.773 381.065 247.022 383.472C247.398 383.873 254.914 391.602 266.476 393.527C261.734 405.765 250.14 414.138 236.709 414.138C230.057 414.138 223.669 412.076 218.24 408.176C218.199 408.146 218.144 408.146 218.098 408.115C217.646 407.806 217.163 407.531 216.615 407.354C204.443 403.428 201.635 390.428 201.03 383.025C217.59 380.948 230.457 366.582 230.457 349.195C230.457 330.386 215.406 315.076 196.907 315.076C191.204 315.076 185.659 316.62 180.728 319.387C178.224 313.466 173.497 308.53 167.098 306.103C164.041 304.94 160.634 306.519 159.501 309.632C158.359 312.735 159.913 316.203 162.97 317.361C169.282 319.758 172.506 326.928 170.155 333.362C167.799 339.786 160.745 343.061 154.433 340.67C151.376 339.512 147.969 341.091 146.826 344.204C145.714 347.322 147.243 350.77 150.3 351.938C162.726 356.645 176.594 350.196 181.23 337.562C181.829 335.927 182.19 334.271 182.434 332.611C182.525 332.54 182.637 332.519 182.728 332.443C186.669 329 191.701 327.096 196.906 327.096C208.891 327.096 218.64 337.008 218.64 349.19C218.64 361.373 208.89 371.284 196.906 371.284C190.391 371.284 184.267 368.344 180.113 363.215C178.041 360.651 174.314 360.285 171.8 362.398C169.276 364.5 168.921 368.283 170.998 370.858C175.71 376.682 182.078 380.654 189.116 382.36C189.573 391.013 192.448 407.562 206.534 415.829C201.395 423.324 192.986 427.981 183.749 427.981C177.28 427.981 171.211 425.787 166.194 421.644C166.118 421.578 166.022 421.557 165.94 421.496C165.803 421.395 165.697 421.268 165.549 421.176C161.116 418.424 159.359 415.027 158.658 412.335C166.113 410.705 172.715 406.033 176.706 399.208C177.27 398.244 177.539 397.187 177.539 396.146C177.539 394.1 176.508 392.099 174.649 390.977C171.846 389.281 168.22 390.22 166.555 393.074C163.63 398.076 158.262 401.113 152.549 400.991C145.745 400.844 139.783 396.329 137.711 389.753C136.716 386.589 133.39 384.847 130.287 385.863C127.184 386.874 125.478 390.291 126.463 393.414C129.479 402.997 137.254 409.999 146.623 412.208C147.095 415.88 148.501 420.658 152.188 425.173C147.994 426.955 143.515 427.981 138.884 427.981C126.102 427.981 114.397 420.856 108.344 409.395C108.273 409.258 108.136 409.172 108.06 409.045C107.974 408.903 107.953 408.74 107.852 408.603C107.324 407.887 96.4666 392.587 107.557 373.356C117.632 379.658 130.931 379.013 140.29 370.685C141.631 369.492 142.311 367.831 142.311 366.161C142.311 364.754 141.834 363.342 140.849 362.205C138.696 359.706 134.963 359.452 132.51 361.636C125.909 367.511 115.844 366.836 110.076 360.128C107.273 356.878 105.902 352.693 106.171 348.402C106.45 344.096 108.365 340.156 111.554 337.317C114.017 335.113 114.255 331.325 112.112 328.836C109.959 326.338 106.227 326.084 103.774 328.268C98.1982 333.229 94.8619 340.1 94.3744 347.61C93.9884 353.749 95.6287 359.69 98.8837 364.774C87.6154 382.192 90.0224 398.984 94.6638 409.323C92.9322 409.775 91.1447 410.024 89.3419 410.024C79.2263 410.024 70.7712 402.839 68.5223 393.241C73.6766 392.053 80.6793 389.443 84.2746 383.78C84.9145 382.77 85.2191 381.637 85.2191 380.525C85.2191 378.55 84.2645 376.62 82.5176 375.473C79.7754 373.67 76.1191 374.467 74.3469 377.255C72.5746 380.048 66.1762 381.693 62.4539 382.11C62.0273 382.059 61.616 381.917 61.1844 381.973C60.2145 382.11 59.2191 382.191 58.2137 382.191C48.027 382.191 39.516 374.914 37.3331 365.215C44.5084 364.661 55.8581 362.513 64.343 354.845C70.3402 349.422 73.7629 342.165 74.8293 333.426C81.2582 330.192 85.2191 323.534 85.2191 316.445C85.2191 314.378 84.884 312.286 84.1781 310.224C83.1066 307.091 79.7348 305.436 76.6523 306.528C73.5699 307.619 71.95 311.032 73.0164 314.18C74.2707 317.801 72.3715 321.772 68.8016 323.031C65.2469 324.286 61.3418 322.366 60.0977 318.746C59.016 315.612 55.6543 313.957 52.5719 315.049C49.4844 316.145 47.8645 319.599 48.9359 322.701C51.1602 329.186 56.5328 333.609 62.6977 334.955C61.682 339.378 59.6609 342.978 56.5227 345.822C48.3672 353.231 35.2866 353.439 32.0163 353.368C24.6377 350.86 19.5241 343.735 19.5241 335.778C19.5241 333.65 20.0065 331.588 20.6971 329.603C26.2424 328.292 36.678 324.849 41.334 316.862C41.8926 315.902 42.1617 314.845 42.1617 313.804C42.1617 311.748 41.1258 309.747 39.2621 308.625C36.4539 306.934 32.8281 307.873 31.1676 310.732C29.0246 314.419 22.357 316.948 17.543 318.014C14.0746 315.81 11.825 312.017 11.825 307.812C11.825 301.104 17.1875 295.65 23.7738 295.65H108.789V295.652Z" fill="black"/>
</g>
<path d="M28.6033 290.479H94.2295C94.8732 290.477 95.5135 290.341 96.1023 290.08C96.8988 290.333 97.7262 290.465 98.5605 290.479H146.154C151.226 290.372 155.257 286.178 155.166 281.104V131.105C155.154 127.69 153.281 124.552 150.282 122.923C148.413 110.765 139.117 101.083 127.041 98.7225V74.853C127.041 72.2643 124.941 70.1666 122.354 70.1666C119.764 70.1666 117.666 72.2643 117.666 74.853V98.7225C105.592 101.083 96.2946 110.765 94.4252 122.923C91.4262 124.552 89.5551 127.69 89.5414 131.105V149.854H80.167V140.479C80.167 135.3 75.9699 131.105 70.7925 131.105H47.3539C42.1766 131.105 37.9778 135.3 37.9778 140.479V149.854H28.6033C23.426 149.854 19.2289 154.051 19.2289 159.228V281.104C19.2289 286.281 23.426 290.479 28.6033 290.479V290.479ZM98.9158 281.104V131.105H145.791L146.154 281.104H98.9158ZM122.354 107.666C130.793 107.889 138.101 113.595 140.363 121.729H104.345C106.606 113.595 113.914 107.889 122.354 107.666ZM47.3539 140.479H70.7925V149.854H47.3539V140.479ZM28.6033 159.228H89.5414V281.104H28.6033V159.228Z" fill="black"/>
<path d="M173.916 290.478H291.104C296.282 290.478 300.479 286.281 300.479 281.104V187.353C300.479 187.26 300.431 187.18 300.427 187.09C300.402 186.649 300.314 186.213 300.166 185.798C300.122 185.676 300.1 185.552 300.048 185.437C299.844 184.972 299.567 184.539 299.227 184.162L284.377 168.171C281.888 165.476 278.39 163.937 274.721 163.916H255.868C252.227 163.947 248.761 165.473 246.277 168.135L239.541 175.386V159.228C239.541 154.051 235.344 149.853 230.166 149.853V93.6035C230.156 90.2183 228.314 87.1043 225.351 85.465C225.422 85.0581 225.465 84.6427 225.478 84.229V46.7279C225.478 46.0996 225.413 45.4696 225.288 44.8516C228.103 42.4089 228.446 38.162 226.06 35.2952L210.012 15.3585C208.266 13.187 205.643 11.9064 202.857 11.8686C200.091 11.8926 197.461 13.0719 195.601 15.1199L178.383 35.1133C175.915 37.9062 176.124 42.16 178.853 44.6971C178.695 45.3649 178.613 46.0464 178.603 46.7279V84.229C178.618 84.6427 178.659 85.0581 178.73 85.465C175.769 87.1043 173.927 90.2183 173.916 93.6035V149.853C168.739 149.853 164.542 154.051 164.542 159.228V281.104C164.542 286.281 168.739 290.478 173.916 290.478V290.478ZM197.353 281.104V262.353H206.728V281.104H197.353ZM239.541 281.104V192.041H291.104V281.104H239.541ZM253.135 174.519C253.839 173.75 254.827 173.306 255.868 173.292H274.721C275.785 173.302 276.796 173.759 277.507 174.552L285.043 182.667H245.58L253.135 174.519ZM187.979 46.7279H216.104V84.229H187.979V46.7279ZM202.702 21.243L215.682 37.3534H188.829L202.702 21.243ZM183.293 93.6035H220.792V149.853H183.293V93.6035ZM173.916 159.228H230.166V281.104H216.104V262.353C216.104 257.176 211.905 252.979 206.728 252.979H197.353C192.176 252.979 187.979 257.176 187.979 262.353V281.104H173.916V159.228Z" fill="black"/>
<path d="M42.6675 74.853H96.5727C108.222 74.853 117.666 65.4099 117.666 53.7593C117.666 42.1103 108.222 32.6673 96.5727 32.6673C95.7521 32.6673 94.9316 32.7153 94.1162 32.8166C93.0673 20.4038 83.2826 10.5229 70.8801 9.34877C58.4776 8.17461 47.014 16.047 43.6563 28.0444C43.3284 28.029 42.9954 27.9775 42.6675 27.9775C29.7208 27.9775 19.2289 38.4711 19.2289 51.4161C19.2289 64.3594 29.7208 74.853 42.6675 74.853ZM46.2106 37.824C46.3548 37.8634 46.5025 37.824 46.6518 37.8549C46.7908 37.9046 46.935 37.9458 47.081 37.9785C47.2509 37.9664 47.4174 37.9458 47.5839 37.9149C47.8878 37.9149 48.1899 37.8823 48.4886 37.824C48.7993 37.7553 49.1048 37.654 49.3915 37.5184C49.6284 37.4085 49.8533 37.2798 50.0679 37.1339C50.3477 36.9451 50.6017 36.7253 50.8283 36.4781C51.0017 36.2893 51.1579 36.0867 51.2952 35.8722C51.4858 35.5889 51.6454 35.2868 51.7656 34.9675C51.8411 34.8302 51.9064 34.686 51.9664 34.5401C52.0076 34.3959 51.9664 34.2551 51.9991 34.1109C52.0317 33.965 52.1055 33.8277 52.1209 33.6698C52.7441 25.1313 59.8869 18.5395 68.4477 18.603C77.5079 18.603 84.8533 25.9484 84.8533 35.0104C84.8533 35.4773 84.7555 35.9013 84.7177 36.3511C79.5644 39.8393 76.2308 45.4423 75.6231 51.6358C75.5922 51.8487 75.5716 52.0598 75.5682 52.2744C75.5682 52.3499 75.5252 52.4152 75.5252 52.4941C75.5252 55.0828 77.6247 57.1822 80.2133 57.1822H80.2614C80.8742 57.1805 81.4836 57.0569 82.0501 56.8217C82.1926 56.7599 82.299 56.6483 82.4346 56.5728C82.8312 56.3771 83.1985 56.1265 83.5264 55.833C83.6054 55.7334 83.6792 55.6321 83.7478 55.5274C84.0671 55.1806 84.3315 54.7875 84.5306 54.3601C84.5718 54.2622 84.5787 54.1438 84.6147 54.0408C84.7795 53.6408 84.8894 53.2237 84.9392 52.7945C85.2482 48.7313 87.6737 45.1333 91.3232 43.3206C92.942 42.4708 94.7445 42.0314 96.5727 42.0417C103.044 42.0417 108.29 47.2876 108.29 53.7593C108.29 60.2309 103.044 65.4786 96.5727 65.4786H42.6675C37.2001 65.5009 32.2151 62.3509 29.8874 57.4054C27.5579 52.4598 28.3081 46.613 31.8082 42.4125C35.3101 38.2136 40.9252 36.4215 46.2106 37.824Z" fill="black"/>
<path d="M274.697 60.7922C288.936 60.7922 300.479 49.2497 300.479 35.0103C300.479 20.771 288.936 9.22852 274.697 9.22852C260.458 9.22852 248.915 20.771 248.915 35.0103C248.931 49.2428 260.465 60.7767 274.697 60.7922ZM274.697 18.6029C283.759 18.6029 291.105 25.9483 291.105 35.0103C291.105 44.0723 283.759 51.416 274.697 51.416C265.635 51.416 258.291 44.0723 258.291 35.0103C258.291 25.9483 265.635 18.6029 274.697 18.6029V18.6029Z" fill="black"/>
<path d="M112.98 140.479C110.39 140.479 108.29 142.577 108.29 145.165V154.542C108.29 157.13 110.39 159.228 112.98 159.228C115.567 159.228 117.666 157.13 117.666 154.542V145.165C117.666 142.577 115.567 140.479 112.98 140.479Z" fill="black"/>
<path d="M131.729 140.479C129.14 140.479 127.041 142.577 127.041 145.165V154.542C127.041 157.13 129.14 159.228 131.729 159.228C134.318 159.228 136.415 157.13 136.415 154.542V145.165C136.415 142.577 134.318 140.479 131.729 140.479Z" fill="black"/>
<path d="M112.98 168.602C110.39 168.602 108.29 170.702 108.29 173.292V182.667C108.29 185.254 110.39 187.353 112.98 187.353C115.567 187.353 117.666 185.254 117.666 182.667V173.292C117.666 170.702 115.567 168.602 112.98 168.602V168.602Z" fill="black"/>
<path d="M131.729 168.602C129.14 168.602 127.041 170.702 127.041 173.292V182.667C127.041 185.254 129.14 187.353 131.729 187.353C134.318 187.353 136.415 185.254 136.415 182.667V173.292C136.415 170.702 134.318 168.602 131.729 168.602V168.602Z" fill="black"/>
<path d="M112.98 196.727C110.39 196.727 108.29 198.827 108.29 201.417V210.792C108.29 213.379 110.39 215.478 112.98 215.478C115.567 215.478 117.666 213.379 117.666 210.792V201.417C117.666 198.827 115.567 196.727 112.98 196.727V196.727Z" fill="black"/>
<path d="M131.729 196.727C129.14 196.727 127.041 198.827 127.041 201.417V210.792C127.041 213.379 129.14 215.478 131.729 215.478C134.318 215.478 136.415 213.379 136.415 210.792V201.417C136.415 198.827 134.318 196.727 131.729 196.727V196.727Z" fill="black"/>
<path d="M112.98 224.854C110.39 224.854 108.29 226.954 108.29 229.54V238.915C108.29 241.505 110.39 243.605 112.98 243.605C115.567 243.605 117.666 241.505 117.666 238.915V229.54C117.666 226.954 115.567 224.854 112.98 224.854Z" fill="black"/>
<path d="M131.729 224.854C129.14 224.854 127.041 226.954 127.041 229.54V238.915C127.041 241.505 129.14 243.605 131.729 243.605C134.318 243.605 136.415 241.505 136.415 238.915V229.54C136.415 226.954 134.318 224.854 131.729 224.854Z" fill="black"/>
<path d="M112.98 252.979C110.39 252.979 108.29 255.079 108.29 257.665V267.04C108.29 269.63 110.39 271.73 112.98 271.73C115.567 271.73 117.666 269.63 117.666 267.04V257.665C117.666 255.079 115.567 252.979 112.98 252.979Z" fill="black"/>
<path d="M131.729 252.979C129.14 252.979 127.041 255.079 127.041 257.665V267.04C127.041 269.63 129.14 271.73 131.729 271.73C134.318 271.73 136.415 269.63 136.415 267.04V257.665C136.415 255.079 134.318 252.979 131.729 252.979Z" fill="black"/>
<path d="M187.979 187.353C190.568 187.353 192.667 185.254 192.667 182.667V173.292C192.667 170.702 190.568 168.602 187.979 168.602C185.39 168.602 183.293 170.702 183.293 173.292V182.667C183.293 185.254 185.39 187.353 187.979 187.353Z" fill="black"/>
<path d="M202.041 121.729C199.453 121.729 197.353 123.828 197.353 126.415V135.791C197.353 138.38 199.453 140.479 202.041 140.479C204.63 140.479 206.728 138.38 206.728 135.791V126.415C206.728 123.828 204.63 121.729 202.041 121.729Z" fill="black"/>
<path d="M202.041 56.1023C199.453 56.1023 197.353 58.2017 197.353 60.7921V70.1665C197.353 72.7535 199.453 74.8529 202.041 74.8529C204.63 74.8529 206.728 72.7535 206.728 70.1665V60.7921C206.728 58.2017 204.63 56.1023 202.041 56.1023Z" fill="black"/>
<path d="M216.104 187.353C218.693 187.353 220.792 185.254 220.792 182.667V173.292C220.792 170.702 218.693 168.602 216.104 168.602C213.515 168.602 211.418 170.702 211.418 173.292V182.667C211.418 185.254 213.515 187.353 216.104 187.353Z" fill="black"/>
<path d="M187.979 215.478C190.568 215.478 192.667 213.379 192.667 210.792V201.417C192.667 198.827 190.568 196.727 187.979 196.727C185.39 196.727 183.293 198.827 183.293 201.417V210.792C183.293 213.379 185.39 215.478 187.979 215.478Z" fill="black"/>
<path d="M216.104 215.478C218.693 215.478 220.792 213.379 220.792 210.792V201.417C220.792 198.827 218.693 196.727 216.104 196.727C213.515 196.727 211.418 198.827 211.418 201.417V210.792C211.418 213.379 213.515 215.478 216.104 215.478Z" fill="black"/>
<path d="M187.979 243.605C190.568 243.605 192.667 241.505 192.667 238.915V229.54C192.667 226.954 190.568 224.854 187.979 224.854C185.39 224.854 183.293 226.954 183.293 229.54V238.915C183.293 241.505 185.39 243.605 187.979 243.605Z" fill="black"/>
<path d="M216.104 243.605C218.693 243.605 220.792 241.505 220.792 238.915V229.54C220.792 226.954 218.693 224.854 216.104 224.854C213.515 224.854 211.418 226.954 211.418 229.54V238.915C211.418 241.505 213.515 243.605 216.104 243.605Z" fill="black"/>
<path d="M258.291 201.417H253.605C251.015 201.417 248.915 203.515 248.915 206.104C248.915 208.692 251.015 210.792 253.605 210.792H258.291C260.88 210.792 262.979 208.692 262.979 206.104C262.979 203.515 260.88 201.417 258.291 201.417Z" fill="black"/>
<path d="M258.291 220.166H253.605C251.015 220.166 248.915 222.264 248.915 224.854C248.915 227.443 251.015 229.54 253.605 229.54H258.291C260.88 229.54 262.979 227.443 262.979 224.854C262.979 222.264 260.88 220.166 258.291 220.166Z" fill="black"/>
<path d="M258.291 238.915H253.605C251.015 238.915 248.915 241.014 248.915 243.605C248.915 246.192 251.015 248.291 253.605 248.291H258.291C260.88 248.291 262.979 246.192 262.979 243.605C262.979 241.014 260.88 238.915 258.291 238.915Z" fill="black"/>
<path d="M258.291 257.665H253.605C251.015 257.665 248.915 259.765 248.915 262.354C248.915 264.942 251.015 267.04 253.605 267.04H258.291C260.88 267.04 262.979 264.942 262.979 262.354C262.979 259.765 260.88 257.665 258.291 257.665Z" fill="black"/>
<path d="M56.7283 206.104H43.1345C40.5475 206.104 38.4481 208.201 38.4481 210.792C38.4481 213.379 40.5475 215.478 43.1345 215.478H56.7283C59.3187 215.478 61.4164 213.379 61.4164 210.792C61.4164 208.201 59.3187 206.104 56.7283 206.104Z" fill="black"/>
<path d="M56.7283 187.353H43.1345C40.5475 187.353 38.4481 189.452 38.4481 192.041C38.4481 194.63 40.5475 196.727 43.1345 196.727H56.7283C59.3187 196.727 61.4164 194.63 61.4164 192.041C61.4164 189.452 59.3187 187.353 56.7283 187.353V187.353Z" fill="black"/>
<path d="M56.7283 168.602H43.1345C40.5475 168.602 38.4481 170.702 38.4481 173.292C38.4481 175.879 40.5475 177.979 43.1345 177.979H56.7283C59.3187 177.979 61.4164 175.879 61.4164 173.292C61.4164 170.702 59.3187 168.602 56.7283 168.602Z" fill="black"/>
<path d="M56.7283 224.854H43.1345C40.5475 224.854 38.4481 226.954 38.4481 229.54C38.4481 232.131 40.5475 234.229 43.1345 234.229H56.7283C59.3187 234.229 61.4164 232.131 61.4164 229.54C61.4164 226.954 59.3187 224.854 56.7283 224.854Z" fill="black"/>
<path d="M56.7283 243.605H43.1345C40.5475 243.605 38.4481 245.702 38.4481 248.291C38.4481 250.88 40.5475 252.979 43.1345 252.979H56.7283C59.3187 252.979 61.4164 250.88 61.4164 248.291C61.4164 245.702 59.3187 243.605 56.7283 243.605Z" fill="black"/>
<path d="M56.7283 262.354H43.1345C40.5475 262.354 38.4481 264.453 38.4481 267.04C38.4481 269.63 40.5475 271.73 43.1345 271.73H56.7283C59.3187 271.73 61.4164 269.63 61.4164 267.04C61.4164 264.453 59.3187 262.354 56.7283 262.354Z" fill="black"/>
<path d="M280.369 202.775C278.489 201.041 275.591 201.041 273.713 202.775C273.279 203.216 272.944 203.741 272.73 204.322C272.49 204.886 272.361 205.491 272.354 206.104C272.371 207.345 272.857 208.534 273.713 209.43C274.162 209.856 274.687 210.191 275.26 210.416C275.825 210.656 276.429 210.783 277.04 210.792C278.283 210.773 279.469 210.287 280.369 209.43C280.782 208.975 281.116 208.452 281.354 207.885C281.854 206.751 281.854 205.456 281.354 204.322C281.14 203.741 280.803 203.216 280.369 202.775Z" fill="black"/>
<path d="M279.667 220.962C279.406 220.786 279.123 220.645 278.822 220.542C278.558 220.406 278.273 220.31 277.978 220.26C276.436 219.945 274.834 220.42 273.713 221.526C273.289 221.972 272.955 222.499 272.73 223.071C272.49 223.635 272.361 224.241 272.354 224.854C272.364 225.168 272.395 225.481 272.447 225.79C272.498 226.085 272.593 226.37 272.73 226.636C272.831 226.933 272.972 227.218 273.15 227.479L273.713 228.183C274.611 229.037 275.801 229.523 277.04 229.54C277.356 229.53 277.669 229.501 277.978 229.446C278.273 229.398 278.558 229.3 278.822 229.164C279.123 229.065 279.406 228.921 279.667 228.746L280.369 228.183L280.93 227.479C281.109 227.218 281.251 226.933 281.354 226.636C281.49 226.37 281.582 226.085 281.634 225.79C281.685 225.481 281.718 225.168 281.73 224.854C281.709 223.613 281.225 222.423 280.369 221.526C280.147 221.325 279.912 221.136 279.667 220.962Z" fill="black"/>
<path d="M279.667 239.715C279.406 239.536 279.123 239.394 278.822 239.291C278.558 239.155 278.273 239.063 277.978 239.011C276.436 238.704 274.84 239.176 273.713 240.276C271.894 242.111 271.901 245.072 273.732 246.895C275.561 248.72 278.522 248.72 280.352 246.895C282.182 245.072 282.188 242.111 280.369 240.276C280.147 240.075 279.912 239.887 279.667 239.715V239.715Z" fill="black"/>
<path d="M273.713 259.027C271.894 260.86 271.901 263.821 273.732 265.646C275.561 267.469 278.522 267.469 280.352 265.646C282.182 263.821 282.188 260.86 280.369 259.027C278.486 257.303 275.597 257.303 273.713 259.027V259.027Z" fill="black"/>
<path d="M80.167 173.292C80.167 175.879 78.0676 177.979 75.4789 177.979C72.8903 177.979 70.7925 175.879 70.7925 173.292C70.7925 170.702 72.8903 168.602 75.4789 168.602C78.0676 168.602 80.167 170.702 80.167 173.292Z" fill="black"/>
<path d="M206.728 107.666C206.728 110.255 204.63 112.354 202.041 112.354C199.453 112.354 197.353 110.255 197.353 107.666C197.353 105.077 199.453 102.98 202.041 102.98C204.63 102.98 206.728 105.077 206.728 107.666Z" fill="black"/>
<path d="M80.167 192.041C80.167 194.63 78.0676 196.727 75.4789 196.727C72.8903 196.727 70.7925 194.63 70.7925 192.041C70.7925 189.452 72.8903 187.353 75.4789 187.353C78.0676 187.353 80.167 189.452 80.167 192.041Z" fill="black"/>
<path d="M80.167 210.792C80.167 213.379 78.0676 215.478 75.4789 215.478C72.8903 215.478 70.7925 213.379 70.7925 210.792C70.7925 208.201 72.8903 206.104 75.4789 206.104C78.0676 206.104 80.167 208.201 80.167 210.792V210.792Z" fill="black"/>
<path d="M80.167 229.54C80.167 232.131 78.0676 234.229 75.4789 234.229C72.8903 234.229 70.7925 232.131 70.7925 229.54C70.7925 226.954 72.8903 224.854 75.4789 224.854C78.0676 224.854 80.167 226.954 80.167 229.54V229.54Z" fill="black"/>
<path d="M80.167 248.291C80.167 250.88 78.0676 252.979 75.4789 252.979C72.8903 252.979 70.7925 250.88 70.7925 248.291C70.7925 245.702 72.8903 243.605 75.4789 243.605C78.0676 243.605 80.167 245.702 80.167 248.291Z" fill="black"/>
<path d="M80.167 267.04C80.167 269.63 78.0676 271.73 75.4789 271.73C72.8903 271.73 70.7925 269.63 70.7925 267.04C70.7925 264.453 72.8903 262.354 75.4789 262.354C78.0676 262.354 80.167 264.453 80.167 267.04Z" fill="black"/>
<defs>
<clipPath id="clip0">
<rect width="325" height="325" fill="white" transform="translate(1.52588e-05 440) rotate(-90)"/>
</clipPath>
</defs>
</svg>
